<?xml version="1.0" encoding="UTF-8" standalone="no"?>
<svg width="18px" height="18px" viewBox="0 0 18 18" version="1.1" xmlns="http://www.w3.org/2000/svg" xmlns:xlink="http://www.w3.org/1999/xlink">
    <!-- Generator: Sketch 42 (36781) - http://www.bohemiancoding.com/sketch -->
    <title>icon-circle-down</title>
    <desc>Created with Sketch.</desc>
    <defs></defs>
    <g id="Page-1" stroke="none" stroke-width="1" fill="none" fill-rule="evenodd">
        <g id="Homepage" transform="translate(-661.000000, -412.000000)">
            <g id="Hero">
                <g id="Btn" transform="translate(640.000000, 396.000000)">
                    <g id="icon-circle-down" transform="translate(21.000000, 16.000000)">
                        <g id="Group">
                            <g id="Filled_Icons_1_" fill="#FB7352">
                                <g id="New_icons">
                                    <path d="M8.625,0 C3.86925,0 0,3.86925 0,8.625 C0,13.38075 3.86925,17.25 8.625,17.25 C13.38075,17.25 17.25,13.38075 17.25,8.625 C17.25,3.86925 13.38075,0 8.625,0 Z M12.53025,11.03025 L9.15525,14.40525 C8.862,14.69925 8.388,14.69925 8.09475,14.40525 L4.71975,11.03025 C4.02,10.33125 5.07825,9.26775 5.78025,9.9705 L7.875,12.06525 L7.875,4.125 C7.875,3.711 8.21025,3.375 8.625,3.375 C9.03975,3.375 9.375,3.711 9.375,4.125 L9.375,12.0645 L11.46975,9.96975 C12.17175,9.26775 13.23,10.33125 12.53025,11.03025 Z" id="Shape"></path>
                                </g>
                            </g>
                            <g id="Invisible_Shape">
                                <rect id="Rectangle-path" x="0" y="0" width="18" height="18"></rect>
                            </g>
                        </g>
                    </g>
                </g>
            </g>
        </g>
    </g>
</svg>