<?xml version="1.0" encoding="UTF-8" standalone="no"?>
<svg width="28px" height="23px" viewBox="0 0 28 23" version="1.1" xmlns="http://www.w3.org/2000/svg" xmlns:xlink="http://www.w3.org/1999/xlink">
    <!-- Generator: Sketch 42 (36781) - http://www.bohemiancoding.com/sketch -->
    <title>IconTwitter</title>
    <desc>Created with Sketch.</desc>
    <defs></defs>
    <g id="Page-1" stroke="none" stroke-width="1" fill="none" fill-rule="evenodd">
        <g id="Homepage" transform="translate(-1235.000000, -4458.000000)" fill="#FA7252">
            <g id="Footer" transform="translate(0.000000, 4374.000000)">
                <g id="Social" transform="translate(1121.000000, 82.000000)">
                    <g id="IconTwitter" transform="translate(114.000000, 2.000000)">
                        <path d="M28.0891266,2.80965909 C27.3146526,3.953125 26.3783482,4.927405 25.2802135,5.73249805 C25.2917731,5.89585032 25.2975524,6.14087873 25.2975524,6.46758327 C25.2975524,7.98442595 25.0779261,9.49835077 24.6386714,11.0093598 C24.1994177,12.5203678 23.5318677,13.9701195 22.6360215,15.3586138 C21.7401742,16.7471081 20.6738286,17.975167 19.4369817,19.0427915 C18.2001359,20.1104149 16.7089839,20.9621801 14.9635287,21.5980873 C13.2180726,22.2339944 11.3512432,22.5519485 9.36304254,22.5519485 C6.23046875,22.5519485 3.36375971,21.7060169 0.762914393,20.0141536 C1.16749029,20.0608258 1.61830357,20.0841625 2.11535425,20.0841625 C4.71619854,20.0841625 7.03384125,19.2790684 9.06827929,17.6688823 C7.85455161,17.6455456 6.7679765,17.269252 5.80855396,16.5400015 C4.84913143,15.8107499 4.19025039,14.8802253 3.83191189,13.7484277 C4.21336857,13.8067672 4.56592779,13.8359375 4.8895885,13.8359375 C5.38663918,13.8359375 5.87790954,13.7717633 6.36340061,13.643415 C5.06875775,13.375051 3.99663189,12.7245587 3.147022,11.6919392 C2.29741314,10.6593197 1.87260871,9.46043005 1.87260871,8.09527236 L1.87260871,8.0252635 C2.65864129,8.46864809 3.50247086,8.70784286 4.40409743,8.74284677 C3.64118304,8.22945436 3.03431971,7.55854332 2.58350643,6.73011364 C2.13269314,5.90168395 1.9072865,5.00324645 1.9072865,4.03480114 C1.9072865,3.00801527 2.16159164,2.05707191 2.67020089,1.18197 C4.06887711,2.9205055 5.77098654,4.31191664 7.77652711,5.35620445 C9.78206664,6.40049227 11.929209,6.98097568 14.2179532,7.09765573 C14.1254785,6.65427114 14.0792411,6.22255486 14.0792411,5.80250586 C14.0792411,4.238992 14.6254188,2.90592036 15.7177732,1.803292 C16.8101286,0.700664682 18.1307793,0.1493505 19.6797273,0.1493505 C21.2980309,0.1493505 22.6620293,0.744420091 23.7717236,1.93455718 C25.0316887,1.68952877 26.2165179,1.23447691 27.3262122,0.5693995 C26.8985171,1.91122159 26.0778057,2.94967577 24.864078,3.684761 C25.9390945,3.56807991 27.01411,3.27638032 28.0891266,2.80965909 Z" id="Shape"></path>
                    </g>
                </g>
            </g>
        </g>
    </g>
</svg>