<?xml version="1.0" encoding="UTF-8" standalone="no"?>
<svg width="29px" height="18px" viewBox="0 0 29 18" version="1.1" xmlns="http://www.w3.org/2000/svg" xmlns:xlink="http://www.w3.org/1999/xlink">
    <!-- Generator: Sketch 42 (36781) - http://www.bohemiancoding.com/sketch -->
    <title>IconBehance</title>
    <desc>Created with Sketch.</desc>
    <defs></defs>
    <g id="Page-1" stroke="none" stroke-width="1" fill="none" fill-rule="evenodd">
        <g id="Homepage" transform="translate(-1121.000000, -4460.000000)" fill="#FA7252">
            <g id="Footer" transform="translate(0.000000, 4374.000000)">
                <g id="Social" transform="translate(1121.000000, 82.000000)">
                    <g id="IconBehance" transform="translate(0.000000, 4.000000)">
                        <path d="M25.6339286,2.89742318 L18.5457585,2.89742318 L18.5457585,1.19896527 L25.6339286,1.19896527 L25.6339286,2.89742318 Z M22.1383929,7.03398927 C21.3061227,7.03398927 20.631059,7.27369118 20.1132019,7.75309418 C19.5953447,8.232498 19.3086731,8.883117 19.2531887,9.70495118 L24.9126273,9.70495118 C24.7461731,7.92431018 23.8214286,7.03398927 22.1383929,7.03398927 Z M22.3603315,15.046875 C22.9429208,15.046875 23.5070155,14.9007715 24.0526149,14.6085635 C24.5982143,14.3163556 24.9496172,13.9191357 25.1068237,13.4169038 L28.1723533,13.4169038 C27.2476087,16.2202721 25.2732779,17.6219558 22.2493626,17.6219558 C20.2704084,17.6219558 18.6960299,17.0192774 17.5262279,15.8139205 C16.3564251,14.6085635 15.7715241,13.0242494 15.7715241,11.0609779 C15.7715241,9.16162773 16.3749204,7.58416173 17.5817123,6.32858155 C18.7885043,5.07300136 20.3443874,4.44521127 22.2493626,4.44521127 C23.5255101,4.44521127 24.6375159,4.75568182 25.5853793,5.37662373 C26.5332426,5.99756482 27.2406727,6.81483355 27.7076689,7.82842909 C28.174665,8.84202545 28.408163,9.97433018 28.408163,11.2253449 C28.408163,11.3805802 28.3989162,11.5951705 28.3804208,11.8691149 L19.2531887,11.8691149 C19.2531887,12.8827113 19.5190532,13.6657366 20.0507815,14.2181918 C20.5825097,14.770647 21.3523595,15.046875 22.3603315,15.046875 Z M3.84231523,14.3620126 L7.94818246,14.3620126 C9.84390914,14.3620126 10.7917733,13.5995335 10.7917733,12.0745743 C10.7917733,10.4309051 9.87165137,9.60907091 8.03140914,9.60907091 L3.84231523,9.60907091 L3.84231523,14.3620126 Z M3.84231523,7.00659491 L7.74011491,7.00659491 C8.46141617,7.00659491 9.03244606,6.83994518 9.45320457,6.50664573 C9.87396391,6.17334627 10.0843432,5.65513364 10.0843432,4.95200864 C10.0843432,3.63707345 9.2058354,2.97960627 7.44881986,2.97960627 L3.84231523,2.97960627 L3.84231523,7.00659491 Z M0,0.0346999091 L8.23947669,0.0346999091 C9.04400546,0.0346999091 9.76068246,0.0986203636 10.3895085,0.226461273 C11.0183354,0.354302182 11.6032364,0.571175182 12.1442123,0.877080273 C12.6851883,1.18298536 13.1013234,1.62357955 13.3926176,2.19886364 C13.6839127,2.77414773 13.8295598,3.47727273 13.8295598,4.30823864 C13.8295598,5.96103873 13.0342795,7.16183018 11.4437182,7.910613 C12.497927,8.20282091 13.2932081,8.72788173 13.8295598,9.48579545 C14.3659123,10.2437092 14.6340877,11.1751216 14.6340877,12.2800328 C14.6340877,12.9648944 14.5208071,13.588119 14.2942442,14.1497059 C14.0676821,14.7112928 13.7625159,15.1838476 13.3787465,15.5673704 C12.9949779,15.9508931 12.5395412,16.2750608 12.0124363,16.5398744 C11.4853315,16.8046879 10.925861,16.9964493 10.3340241,17.1151585 C9.74218709,17.2338676 9.12260871,17.2932226 8.47528729,17.2932226 L0,17.2932226 L0,0.0346999091 Z" id="Shape"></path>
                    </g>
                </g>
            </g>
        </g>
    </g>
</svg>