<?xml version="1.0" encoding="UTF-8" standalone="no"?>
<svg width="24px" height="25px" viewBox="0 0 24 25" version="1.1" xmlns="http://www.w3.org/2000/svg" xmlns:xlink="http://www.w3.org/1999/xlink">
    <!-- Generator: Sketch 42 (36781) - http://www.bohemiancoding.com/sketch -->
    <title>IconLinkedin</title>
    <desc>Created with Sketch.</desc>
    <defs></defs>
    <g id="Page-1" stroke="none" stroke-width="1" fill="none" fill-rule="evenodd">
        <g id="Homepage" transform="translate(-1294.000000, -4456.000000)" fill="#FA7252">
            <g id="Footer" transform="translate(0.000000, 4374.000000)">
                <g id="Social" transform="translate(1121.000000, 82.000000)">
                    <g id="IconLinkedin" transform="translate(173.000000, 0.000000)">
                        <path d="M3.66243138,20.5956519 L7.23214246,20.5956519 L7.23214246,9.83796296 L3.66243138,9.83796296 L3.66243138,20.5956519 Z M7.46394277,6.52075093 C7.45364031,5.98338333 7.26820062,5.5390213 6.90762369,5.18766574 C6.54704677,4.83630926 6.06799477,4.66063148 5.47046677,4.66063148 C4.87293969,4.66063148 4.38616062,4.83630926 4.01013046,5.18766574 C3.63410031,5.5390213 3.44608523,5.98338333 3.44608523,6.52075093 C3.44608523,7.04778426 3.62894954,7.48956296 3.99467723,7.84608519 C4.36040492,8.20260833 4.83688154,8.38086944 5.42410708,8.38086944 L5.43956031,8.38086944 C6.04738985,8.38086944 6.53674431,8.20260833 6.90762369,7.84608519 C7.27850308,7.48956296 7.46394277,7.04778426 7.46394277,6.52075093 Z M16.5041206,20.5956519 L20.0738326,20.5956519 L20.0738326,14.4262565 C20.0738326,12.8348213 19.6978025,11.6309111 18.9457422,10.8145259 C18.1936809,9.99813981 17.1995188,9.58994722 15.9632557,9.58994722 C14.5621569,9.58994722 13.4855769,10.1944861 12.7335166,11.403563 L12.7644231,11.403563 L12.7644231,9.83796296 L9.194712,9.83796296 C9.22561846,10.5200065 9.22561846,14.1059028 9.194712,20.5956519 L12.7644231,20.5956519 L12.7644231,14.5812667 C12.7644231,14.188575 12.8004812,13.8992231 12.8725957,13.7132111 C13.0271289,13.3515213 13.2589283,13.0440852 13.5679948,12.7909019 C13.8770603,12.5377194 14.2582422,12.4111278 14.7115385,12.4111278 C15.9065935,12.4111278 16.5041206,13.2223463 16.5041206,14.8447833 L16.5041206,20.5956519 Z M23.736264,5.12566111 L23.736264,20.0066139 C23.736264,21.2363593 23.3009963,22.2878435 22.43046,23.1610657 C21.5599246,24.034288 20.5116757,24.4708991 19.2857142,24.4708991 L4.45054985,24.4708991 C3.22458831,24.4708991 2.17633938,24.034288 1.305804,23.1610657 C0.435267692,22.2878435 0,21.2363593 0,20.0066139 L0,5.12566111 C0,3.89591574 0.435267692,2.84443241 1.305804,1.97120926 C2.17633938,1.09798704 3.22458831,0.661375926 4.45054985,0.661375926 L19.2857142,0.661375926 C20.5116757,0.661375926 21.5599246,1.09798704 22.43046,1.97120926 C23.3009963,2.84443241 23.736264,3.89591574 23.736264,5.12566111 Z" id="Shape"></path>
                    </g>
                </g>
            </g>
        </g>
    </g>
</svg>