<?xml version="1.0" encoding="UTF-8" standalone="no"?>
<svg width="80px" height="80px" viewBox="0 0 80 80" version="1.1" xmlns="http://www.w3.org/2000/svg" xmlns:xlink="http://www.w3.org/1999/xlink">
    <!-- Generator: Sketch 42 (36781) - http://www.bohemiancoding.com/sketch -->
    <title>Icon-ThumbsUp</title>
    <desc>Created with Sketch.</desc>
    <defs>
        <circle id="path-1" cx="40" cy="40" r="40"></circle>
    </defs>
    <g id="Page-1" stroke="none" stroke-width="1" fill="none" fill-rule="evenodd">
        <g id="Thank-you" transform="translate(-681.000000, -448.000000)">
            <g id="My-Work" transform="translate(0.000000, 144.000000)">
                <g id="Group-3" transform="translate(371.000000, 304.000000)">
                    <g id="Icon-ThumbsUp" transform="translate(310.000000, 0.000000)">
                        <g id="thumbs-up-2.2.3.1" transform="translate(24.000000, 24.000000)">
                            <g id="Group">
                                <g id="Filled_Icons_1_" transform="translate(0.000000, 1.333333)">
                                    <g id="Filled_Icons" transform="translate(0.000000, 0.000000)">
                                        <g id="Group" transform="translate(0.000000, 0.000000)"></g>
                                    </g>
                                </g>
                                <g id="Invisible_Shape">
                                    <rect id="Rectangle-path" x="0" y="0" width="32" height="32"></rect>
                                </g>
                            </g>
                        </g>
                        <g id="Group-10">
                            <mask id="mask-2" fill="white">
                                <use xlink:href="#path-1"></use>
                            </mask>
                            <use id="Mask" fill="#FA7252" xlink:href="#path-1"></use>
                            <g mask="url(#mask-2)" id="Shape" fill-rule="nonzero" fill="#FFFFFF">
                                <g transform="translate(24.000000, 25.333333)">
                                    <path d="M8.57333333,25.7493333 C10.704,26.0546667 12.536,26.5586667 13.564,27.004 C14.7493333,27.516 15.8693333,28 18,28 L25.3333333,28 C26.804,28 28,26.804 28,25.3333333 C28,24.7853333 27.8333333,24.2746667 27.548,23.8506667 C28.5866667,23.4853333 29.3333333,22.4946667 29.3333333,21.3333333 C29.3333333,20.7853333 29.1666667,20.2746667 28.8813333,19.8506667 C29.92,19.4853333 30.6666667,18.4946667 30.6666667,17.3333333 C30.6666667,16.7853333 30.5,16.2746667 30.2146667,15.8506667 C31.2533333,15.4853333 32,14.4946667 32,13.3333333 C32,11.864 30.804,10.6666667 29.3333333,10.6666667 L20.9346667,10.6666667 C21.4973333,8.94666667 22.532,5.30933333 21.9746667,3.32266667 C21.124,0.294666667 19.3573333,0.0586666667 18.8373333,0.0586666667 C17.5986667,0.0586666667 16.6666667,1.076 16.6666667,2.424 C16.6666667,6.63466667 12.0666667,13.0906667 8.66666667,13.0906667 C8.29866667,13.0906667 8,13.388 8,13.7573333 L8,25.0906667 C8,25.4213333 8.244,25.7026667 8.57333333,25.7493333 Z"></path>
                                    <path d="M0.666666667,28 L6,28 C6.36666667,28 6.66666667,27.7013333 6.66666667,27.3333333 L6.66666667,11.3333333 C6.66666667,10.9653333 6.36666667,10.6666667 6,10.6666667 L0.666666667,10.6666667 C0.298666667,10.6666667 0,10.9653333 0,11.3333333 L0,27.3333333 C0,27.7013333 0.298666667,28 0.666666667,28 Z M4.66666667,24 C5.03333333,24 5.33333333,24.2973333 5.33333333,24.6666667 C5.33333333,25.0333333 5.03333333,25.3333333 4.66666667,25.3333333 C4.29866667,25.3333333 4,25.0333333 4,24.6666667 C4,24.2973333 4.29866667,24 4.66666667,24 Z"></path>
                                </g>
                            </g>
                        </g>
                    </g>
                </g>
            </g>
        </g>
    </g>
</svg>