<?xml version="1.0" encoding="UTF-8" standalone="no"?>
<svg width="72px" height="72px" viewBox="0 0 72 72" version="1.1" xmlns="http://www.w3.org/2000/svg" xmlns:xlink="http://www.w3.org/1999/xlink">
    <!-- Generator: Sketch 42 (36781) - http://www.bohemiancoding.com/sketch -->
    <title>Logo</title>
    <desc>Created with Sketch.</desc>
    <defs></defs>
    <g id="Page-1" stroke="none" stroke-width="1" fill="none" fill-rule="evenodd">
        <g id="Homepage" transform="translate(-122.000000, -36.000000)">
            <g id="Hero">
                <g id="Logo" transform="translate(122.000000, 36.000000)">
                    <g id="Layer_1">
                        <g id="Default">
                            <path d="M54.8600614,5.34670124 C37.9300788,-5.07876378 15.7721663,0.209956085 5.34670124,17.1399386 C-5.07876378,34.0699212 0.209956085,56.2582287 17.1399386,66.6532988 C34.0699212,77.0787638 56.2582287,71.7900439 66.6532988,54.8600614 C77.0787638,37.9300788 71.7900439,15.7721663 54.8600614,5.34670124 Z" id="Path" fill="#FA7252"></path>
                            <path d="M38.7397117,33.5591577 C38.3473658,34.6286641 37.9304983,35.6732983 37.4891092,36.7179324 C37.1212849,37.6133332 36.7534606,38.5087339 36.4592012,39.4041346 C36.1649417,40.2995353 35.8952039,41.2446805 35.8216391,42.1898257 C35.7971175,42.5629093 35.7725958,42.9608652 35.8216391,43.3339488 C35.8706823,43.7070325 35.9442472,44.1049883 36.0668553,44.4531997 C35.5764229,45.1247503 34.47295,45.7465563 33.3694772,45.7714286 C33.0997394,45.7714286 32.8054799,45.7465563 32.5357421,45.6719396 C32.1188746,45.5724506 31.7020071,45.3734727 31.4077477,45.0501336 C31.2360963,44.8760279 31.1134882,44.6770499 31.0154018,44.4531997 C30.9418369,44.2044773 30.868272,43.9308827 30.8192288,43.657288 C30.7701856,43.3836933 30.7456639,43.1100987 30.7456639,42.836504 C30.7456639,42.5629093 30.7701856,42.3141869 30.8192288,42.0654645 C30.868272,41.8167421 30.9173153,41.5680197 30.9908801,41.3192972 C31.064445,41.0705748 31.1380098,40.7969801 31.2115747,40.5233855 C31.2851396,40.2497908 31.3587044,40.0010684 31.4322693,39.7274737 C31.5058341,39.4538791 31.6039206,39.2051567 31.6774855,38.9564342 C31.7510503,38.7077118 31.8491368,38.4341171 31.9472233,38.1853947 C32.0453098,37.9366723 32.1188746,37.6630776 32.2169611,37.4143552 C32.3150476,37.1656328 32.413134,36.8920381 32.5112205,36.6433157 C32.609307,36.3945933 32.7073935,36.1458709 32.8300016,35.8971485 C32.928088,35.648426 33.0506961,35.3997036 33.1487826,35.1509812 C33.2713907,34.9022588 33.3694772,34.6535363 33.4920853,34.4048139 C33.6146934,34.1560915 33.7373015,33.9073691 33.8353879,33.6586467 C33.9334744,33.4099242 34.0315609,33.1363296 34.1051257,32.8876072 C34.1786906,32.6140125 34.2277338,32.3404178 34.2277338,32.0668232 C34.2277338,31.7683563 34.1296474,31.5445061 33.8844312,31.3704004 C33.5901717,31.2460392 33.2713907,31.2460392 33.0016529,31.3952726 C32.7319151,31.5445061 32.4376557,31.6937395 32.1924395,31.8927175 C31.9472233,32.0916954 31.7020071,32.2906733 31.4813125,32.5145235 C31.2606179,32.7383737 31.0399234,32.9622239 30.8192288,33.1860741 C30.6230558,33.4099242 30.4268829,33.6586467 30.2307099,33.9322413 C30.0590586,34.1809637 29.8874073,34.4545584 29.7157559,34.7281531 C29.5441046,35.0017477 29.3724533,35.2504702 29.2253236,35.5240648 C29.0781938,35.7976595 28.9065425,36.0712541 28.7839344,36.3448488 C28.6368047,36.6184435 28.489675,36.9169104 28.3670669,37.190505 C28.2444588,37.4889719 28.1218507,37.7625666 27.9992426,38.0610335 C27.8766345,38.3595004 27.778548,38.6579673 27.6559399,38.9564342 C27.5578535,39.2549011 27.459767,39.553368 27.3616805,39.8518349 C27.263594,40.1503019 27.1900292,40.4487688 27.1164643,40.7472357 C27.0428995,41.0457026 26.9693346,41.3192972 26.9202914,41.6426364 C26.8712481,41.9411033 26.8467265,42.2644424 26.8467265,42.5629093 C26.8467265,42.8862485 26.8712481,43.1847154 26.9202914,43.5080545 C26.9693346,43.8313937 27.0183778,44.1298606 27.1164643,44.4283275 C26.6260319,45.099878 25.5225591,45.7216841 24.4190862,45.7465563 C24.1493484,45.7465563 23.855089,45.7216841 23.5853512,45.6470674 C23.1684837,45.5475784 22.7516161,45.3486005 22.4573567,45.0252613 C22.2857054,44.8511556 22.1630973,44.6521777 22.0650108,44.4283275 C21.9914459,44.1796051 21.9178811,43.9060104 21.8688379,43.6324157 C21.8197946,43.3588211 21.795273,43.0852264 21.795273,42.8116318 C21.795273,42.5380371 21.8197946,42.2893147 21.8688379,42.0405923 C21.9178811,41.7918698 21.9669243,41.5431474 22.0404892,41.294425 C22.114054,41.0457026 22.1876189,40.7721079 22.2611838,40.4985132 C22.3347486,40.2249186 22.4083135,39.9761962 22.4818783,39.7026015 C22.5554432,39.4290068 22.6535297,39.1802844 22.7270945,38.931562 C22.8006594,38.6828396 22.8987459,38.4092449 22.9968323,38.1605225 C23.0949188,37.9118001 23.1684837,37.6382054 23.2665701,37.389483 C23.3646566,37.1407606 23.4627431,36.8671659 23.5608296,36.6184435 C23.658916,36.3697211 23.7570025,36.1209986 23.8796106,35.8722762 C23.9776971,35.6235538 24.1003052,35.3748314 24.1983917,35.1261089 C24.3209998,34.8773865 24.4190862,34.6286641 24.5416943,34.3799417 C24.6643024,34.1312193 24.7869105,33.8824968 24.884997,33.6337744 C24.9830835,33.385052 25.0811699,33.1114573 25.1547348,32.8627349 C25.2282997,32.5891402 25.2773429,32.3155456 25.2773429,32.0419509 C25.2773429,31.743484 25.1792564,31.5196338 24.9340402,31.3455281 C24.6397808,31.2211669 24.3209998,31.2211669 24.0512619,31.3704004 C23.7815241,31.5196338 23.4872647,31.6688673 23.2420485,31.8678452 C22.9968323,32.0668232 22.7516161,32.2658011 22.5309216,32.4896513 C22.310227,32.7135015 22.0895324,32.9373516 21.8688379,33.1612018 C21.6726649,33.385052 21.4764919,33.6337744 21.280319,33.9073691 C21.1086677,34.1560915 20.9370163,34.4296862 20.765365,34.7032808 C20.5937137,34.9768755 20.4220623,35.2255979 20.2749326,35.4991926 C20.1278029,35.7727872 19.9561516,36.0463819 19.8335435,36.3199766 C19.6864138,36.5935712 19.539284,36.8920381 19.4166759,37.1656328 C19.2940679,37.4640997 19.1714598,37.7376944 19.0488517,38.0361613 C18.9262436,38.3346282 18.8281571,38.6330951 18.705549,38.931562 C18.6074625,39.2300289 18.509376,39.5284958 18.4112896,39.8269627 C18.3132031,40.1254296 18.2396382,40.4238965 18.1660734,40.7223634 C18.0925085,41.0208303 18.0189437,41.294425 17.9699004,41.6177641 C17.9208572,41.916231 17.8963356,42.2395702 17.8963356,42.5380371 C17.8963356,42.8613762 17.9208572,43.1598431 17.9699004,43.4831823 C18.0189437,43.8065214 18.0679869,44.1049883 18.1660734,44.4034553 C17.675641,45.0750058 16.5721681,45.6968118 15.4686953,45.7216841 C15.1989575,45.7216841 14.904698,45.6968118 14.6349602,45.6221951 C14.2180927,45.5227062 13.8012252,45.3237282 13.5069658,45.0003891 C13.3353144,44.8262834 13.2127063,44.6273054 13.1146199,44.4034553 C13.041055,44.2293496 12.9920118,44.0552439 12.9429685,43.8811382 C12.8203604,43.3339488 12.844882,42.7867595 12.9184469,42.2395702 C13.0655766,41.1203193 13.3843577,40.0259406 13.7767036,38.9564342 C14.1690495,37.8869278 14.585917,36.8422937 15.0273061,35.7976595 C15.3951304,34.9022588 15.7629547,34.0068581 16.0572141,33.1114573 C16.3514736,32.2160566 16.6212114,31.2709114 16.6947762,30.3257662 C16.7192979,29.9526826 16.7438195,29.5547267 16.6947762,29.1816431 C16.645733,28.8085594 16.5721681,28.4106036 16.44956,28.0623922 C16.9399924,27.3908416 18.0434653,26.7690356 19.1469381,26.7441634 C19.4166759,26.7441634 19.7109354,26.7690356 19.9806732,26.8436523 C20.3975407,26.9431413 20.8144082,27.1421192 21.1086677,27.4654584 C21.280319,27.6395641 21.4029271,27.838542 21.5010136,28.0623922 C21.5745784,28.2364979 21.6236217,28.4106036 21.6726649,28.5847093 C21.795273,29.1318986 21.7707514,29.6790879 21.6971865,30.2262772 C21.6726649,30.3506385 21.6726649,30.4501274 21.6481433,30.5496164 C22.2611838,29.4303655 23.1684837,28.3857313 24.2719565,27.7141808 C25.399951,27.017758 26.74864,26.6944189 28.0482858,26.7192911 C28.3425453,26.7192911 28.6368047,26.7441634 28.9065425,26.8187801 C29.1272371,26.8685246 29.3724533,26.9680135 29.5686262,27.0923747 C29.7402776,27.1918637 29.8874073,27.2913527 30.0100154,27.4405861 C30.1816667,27.6146918 30.3042748,27.8136698 30.4023613,28.0375199 C30.4759261,28.2116256 30.5249694,28.3857313 30.5740126,28.559837 C30.6966207,29.1070264 30.6720991,29.6542157 30.5985342,30.201405 C30.5740126,30.3257662 30.5740126,30.4252552 30.549491,30.5247442 C31.1625315,29.4054933 32.0698314,28.3608591 33.1733042,27.6893086 C34.3012987,26.9928858 35.6499877,26.6695466 36.9496336,26.6944189 C37.2193714,26.6944189 37.5136308,26.7192911 37.7833686,26.7939078 C38.2002361,26.8933968 38.6171037,27.0923747 38.9113631,27.4157139 C39.0830144,27.5898196 39.2056225,27.7887975 39.303709,28.0126477 C39.3772738,28.1867534 39.4263171,28.3608591 39.4753603,28.5349648 C39.5979684,29.0821541 39.5734468,29.6293434 39.4998819,30.1765328 C39.4508387,31.3952726 39.1320577,32.4896513 38.7397117,33.5591577 Z M57.0315705,30.5778427 C56.8871872,31.6752927 56.5743566,32.748355 56.1893344,33.7970295 C55.8043121,34.8457039 55.395226,35.8699906 54.9620759,36.8942773 C54.6011176,37.7722373 54.2401592,38.6501973 53.9513925,39.5281573 C53.6626259,40.4061174 53.3979231,41.3328529 53.3257314,42.2595885 C53.3016675,42.6254052 53.2776036,43.0156096 53.3257314,43.3814263 C53.3738592,43.747243 53.4460508,44.1374474 53.5663703,44.4788763 C53.0850925,45.1373463 52.0022174,45.7470408 50.9193423,45.7714286 C50.6546395,45.7714286 50.3658728,45.7470408 50.1011701,45.6738775 C49.6920839,45.5763263 49.2829978,45.3812241 48.9942311,45.064183 C48.8257839,44.8934686 48.7054644,44.6983663 48.6092088,44.4788763 C48.3204421,43.7960185 48.2963783,42.9668341 48.4166977,42.3083641 C48.5129533,41.8937718 48.6092088,41.5035674 48.7295283,41.0889751 C48.8257839,40.6743829 48.9461033,40.2841785 49.0664228,39.8695862 C49.1867422,39.4793818 49.3070617,39.0647896 49.451445,38.6745851 C49.5958283,38.2843807 49.7161478,37.8941762 49.884595,37.479584 C50.0289784,37.0893795 50.1974256,36.6991751 50.341809,36.3089706 C50.5102562,35.9187662 50.6546395,35.5285617 50.8471507,35.162745 C51.0155979,34.7725406 51.208109,34.4067239 51.3765562,34.0165195 C51.5450035,33.626315 51.7134507,33.2604983 51.7856424,32.8215183 C51.881898,32.3825383 51.881898,31.870395 51.641259,31.6265172 C51.4006201,31.3826394 50.8952784,31.3826394 50.4861923,31.4801905 C50.0771062,31.6021294 49.7402117,31.8216194 49.4033172,32.0654972 C49.0664228,32.309375 48.7295283,32.5532528 48.4166977,32.8215183 C48.1038671,33.0897839 47.8151004,33.3824372 47.5503977,33.7238661 C47.2856949,34.0409072 47.0450559,34.4067239 46.8284809,34.7481528 C46.6119059,35.1139695 46.3953309,35.4553984 46.2028198,35.821215 C46.0103087,36.1870317 45.8418614,36.5772362 45.6734142,36.9674406 C45.504967,37.3576451 45.3846475,37.7478495 45.2402642,38.1624418 C45.1199447,38.5526462 45.0236891,38.9672384 44.9274336,39.3818307 C44.831178,39.7964229 44.7830502,40.2110151 44.7349225,40.6256074 C44.6867947,41.0401996 44.6627308,41.4547918 44.6386669,41.8693841 C44.6386669,42.2839763 44.6386669,42.6985685 44.6627308,43.1375485 C44.6867947,43.5521408 44.7349225,43.966733 44.8071141,44.3813252 L44.8071141,44.4301008 C44.7830502,44.4544885 44.8071141,44.4544885 44.7830502,44.4788763 C44.3017724,45.1373463 43.2188973,45.7470408 42.1360223,45.7714286 C41.8713195,45.7714286 41.5825528,45.7470408 41.31785,45.6738775 C40.9087639,45.5763263 40.4996777,45.3812241 40.210911,45.064183 C40.0424638,44.8934686 39.9221443,44.6983663 39.8258888,44.4788763 C39.6333777,44.0398963 39.561186,43.6009163 39.561186,43.1131607 C39.561186,42.649793 39.6093138,42.1864252 39.6574415,41.7230574 C39.7296332,41.2596896 39.8018249,40.7963218 39.8740166,40.332954 C39.9702721,39.8695862 40.0665277,39.4306062 40.1868471,38.9672384 C40.3071666,38.5038707 40.427486,38.0648906 40.5478055,37.6259106 C40.6681249,37.1869306 40.8125083,36.7235628 40.9568916,36.2845828 C41.101275,35.8456028 41.2456583,35.4066228 41.4141056,34.9676428 C41.5825528,34.5286628 41.751,34.0896828 41.9194473,33.6507028 C42.0878945,33.2117228 42.2563417,32.7727428 42.424789,32.3581505 C42.5932362,31.9191705 42.7376195,31.4801905 42.9060668,31.0412105 C43.0504501,30.6022305 43.1948335,30.1632505 43.3392168,29.7242705 C43.4836001,29.2852905 43.6039196,28.8463105 43.7483029,28.3829427 C43.8686224,27.9439627 43.9889418,27.4805949 44.1092613,27.0416149 C44.2295808,26.5782471 44.3258363,26.1392671 44.398028,25.6758993 C44.4942835,25.2125315 44.5424113,24.7491637 44.614603,24.2857959 C44.6627308,23.8224282 44.6627308,23.3590604 44.614603,22.8956926 C44.5664752,22.4323248 44.4461558,21.968957 44.2777085,21.529977 C44.7349225,20.8471192 45.7696697,20.1642614 46.8525448,20.0667103 C47.1172476,20.0423225 47.4060143,20.0667103 47.6707171,20.1154859 C48.0798032,20.1886492 48.5129533,20.3593636 48.8257839,20.652017 C48.9942311,20.8227314 49.1386144,21.0178337 49.2589339,21.2373237 C49.3311256,21.4080381 49.4033172,21.5787526 49.451445,21.749467 C49.5958283,22.2616103 49.6198922,22.8225292 49.5717645,23.3590604 C49.4995728,24.4808982 49.23487,25.5539604 48.9220394,26.6270226 C48.6573366,27.5537582 48.344506,28.456106 48.0316755,29.3584538 C47.8872921,29.773046 47.7429088,30.2120261 47.6225893,30.6510061 C48.6573366,29.3828416 50.0289784,28.3341671 51.5690674,27.7000849 C52.531623,27.3098804 53.5423064,27.0903904 54.5529898,27.1147782 C54.8417565,27.1147782 55.1305232,27.139166 55.395226,27.2123293 C55.8043121,27.3098804 56.1893344,27.5049827 56.478101,27.8220238 C56.6465483,27.9927382 56.7668677,28.1878405 56.8631233,28.4073305 C56.935315,28.5780449 56.9834428,28.7487594 57.0315705,28.9194738 C57.1037622,29.5047805 57.1037622,30.0656994 57.0315705,30.5778427 Z" id="Shape" fill="#FFFFFF"></path>
                        </g>
                    </g>
                </g>
            </g>
        </g>
    </g>
</svg>