<?xml version="1.0" encoding="UTF-8" standalone="no"?>
<svg width="19px" height="16px" viewBox="0 0 19 16" version="1.1" xmlns="http://www.w3.org/2000/svg" xmlns:xlink="http://www.w3.org/1999/xlink">
    <!-- Generator: Sketch 42 (36781) - http://www.bohemiancoding.com/sketch -->
    <title>navigation drawer 1.2.3.1</title>
    <desc>Created with Sketch.</desc>
    <defs></defs>
    <g id="Mobile" stroke="none" stroke-width="1" fill="none" fill-rule="evenodd">
        <g id="iPhone---Home" transform="translate(-331.000000, -47.000000)">
            <g id="IconMenu1" transform="translate(286.000000, 30.000000)">
                <g id="navigation-drawer-1.2.3.1" transform="translate(29.000000, 0.000000)">
                    <g id="Group">
                        <g id="Filled_Icons_1_" transform="translate(16.000000, 17.000000)" fill-rule="nonzero" fill="#565656">
                            <g id="Filled_Icons">
                                <g id="Group">
                                    <path d="M1.16570588,2.28571429 L17.8823529,2.28571429 C18.5004118,2.28571429 19,1.77371429 19,1.14285714 C19,0.512 18.5004118,0 17.8823529,0 L1.16570588,0 C0.547647059,0 0.0480588235,0.512 0.0480588235,1.14285714 C0.0480588235,1.77371429 0.547647059,2.28571429 1.16570588,2.28571429 Z" id="Shape"></path>
                                    <path d="M17.8823529,6.85714286 L1.16570588,6.85714286 C0.547647059,6.85714286 0.0480588235,7.36914286 0.0480588235,8 C0.0480588235,8.63085714 0.547647059,9.14285714 1.16570588,9.14285714 L17.8823529,9.14285714 C18.5004118,9.14285714 19,8.63085714 19,8 C19,7.36914286 18.5004118,6.85714286 17.8823529,6.85714286 Z" id="Shape"></path>
                                    <path d="M17.8823529,13.7142857 L1.16570588,13.7142857 C0.547647059,13.7142857 0.0480588235,14.2262857 0.0480588235,14.8571429 C0.0480588235,15.488 0.547647059,16 1.16570588,16 L17.8823529,16 C18.5004118,16 19,15.488 19,14.8571429 C19,14.2262857 18.5004118,13.7142857 17.8823529,13.7142857 Z" id="Shape"></path>
                                </g>
                            </g>
                        </g>
                        <g id="Invisible_Shape">
                            <rect id="Rectangle-path" x="0" y="0" width="50" height="50"></rect>
                        </g>
                    </g>
                </g>
            </g>
        </g>
    </g>
</svg>