<?xml version="1.0" encoding="UTF-8" standalone="no"?>
<svg width="16px" height="24px" viewBox="0 0 16 24" version="1.1" xmlns="http://www.w3.org/2000/svg" xmlns:xlink="http://www.w3.org/1999/xlink">
    <!-- Generator: Sketch 43.2 (39069) - http://www.bohemiancoding.com/sketch -->
    <title>slick-arrow-right</title>
    <desc>Created with Sketch.</desc>
    <defs></defs>
    <g id="Desktop" stroke="none" stroke-width="1" fill="none" fill-rule="evenodd">
        <g id="Homepage" transform="translate(-1297.000000, -3651.000000)">
            <g id="Group-8" transform="translate(0.000000, 3408.000000)">
                <g id="slick-arrow-right" transform="translate(1293.000000, 242.000000)">
                    <g id="Group">
                        <g id="Filled_Icons" transform="translate(4.000000, 0.000000)" fill="#AA9F9D">
                            <path d="M1.501,25 C1.217,25 0.935,24.88 0.737,24.646 C0.38,24.225 0.433,23.594 0.854,23.237 L12.952,13 L0.854,2.764 C0.433,2.406 0.38,1.775 0.737,1.354 C1.093,0.931 1.724,0.88 2.146,1.236 L15.146,12.236 C15.371,12.426 15.5,12.706 15.5,13 C15.5,13.294 15.371,13.573 15.146,13.764 L2.146,24.764 C1.958,24.922 1.728,25 1.501,25 Z" id="Shape"></path>
                        </g>
                        <g id="Frames-24px" transform="translate(0.000000, 1.000000)">
                            <rect id="Rectangle-path" x="0" y="0" width="24" height="24"></rect>
                        </g>
                    </g>
                </g>
            </g>
        </g>
    </g>
</svg>